<svg xmlns="http://www.w3.org/2000/svg" viewBox="0 0 194.129 34.921"><path fill="#cd4632" stroke="#cd4632" stroke-miterlimit="10" d="M30.023 5.639c1.164-4.074 1.1-4.624-1.811-4.624V.498h7.6v.517c-2.167 0-3.363.55-4.4 4.172l-6.273 21.988-7.405-19.111-6.953 19.111h-.194L3.829 3.085c-.356-1.294-1.261-2.07-3.331-2.07V.498h7.6v.517c-2 0-2.749.292-2.3 2.005l5.368 19.79 6.791-19.111h.065l7.114 19.078zm8.581 18.726c0 .84.388 1.2 2.329 1.2v.388h-6.338v-.388c1.94 0 2.328-.356 2.328-1.2V11.98c0-.841-.388-1.2-2.328-1.2v-.388h6.338v.388c-1.94 0-2.329.356-2.329 1.2zm-.877-21.562a1.429 1.429 0 0 1 1.456 1.455 1.423 1.423 0 0 1-2.846 0 1.437 1.437 0 0 1 1.39-1.455zm9.405 21.658c0 .744.582 1.1 2.975 1.1v.388h-6.984v-.388c1.94 0 2.328-.356 2.328-1.1V12.109c0-.97-.389-1.326-2.328-1.326v-.388h4.01zm4.786-14.454c1.714 0 2.554.937 2.554 1.681a.757.757 0 0 1-.808.841c-1.229 0-.712-1.261-2.555-1.261-2 0-3.3 1.682-3.977 3.557.776-3.331 2.391-4.818 4.785-4.818zm5.415 5.886a10.725 10.725 0 0 0-.129 1.779c0 4.236 2.3 7.566 6.629 7.566 1.875 0 4.235-.582 5.5-2.037l.064.065a7.094 7.094 0 0 1-6.273 3.136c-4.495 0-7.76-3.266-7.76-8.666 0-4.786 3.395-8.084 7.728-8.084 3.719 0 6.241 2.457 6.532 6.241zm.1-.647h10.348c-.065-3.4-2.231-4.882-4.624-4.882-3.177-.001-5.085 2.036-5.732 4.884zm22.228-4.528c-4.107 0-6.37 3.136-6.37 7.308 0 4.107 2.135 7.308 6.4 7.308a7.881 7.881 0 0 0 4.366-1.423 6.544 6.544 0 0 1-5.174 2.49c-4.656 0-7.437-3.654-7.437-8.375 0-4.624 2.813-8.375 7.534-8.375a6.422 6.422 0 0 1 5.077 2.651 7.059 7.059 0 0 0-4.396-1.584zM85.74 24.17c0 1.035.389 1.391 2.328 1.391v.388h-4.01V2.085c0-.841-.582-1.2-2.523-1.2V.497h6.532v.388c-1.94 0-2.328.356-2.328 1.2zm14.716-21.374c0-1.391-.582-1.779-3.2-1.779V.5h8.343v.517c-2.619 0-3.2.388-3.2 1.779v20.7c0 1.39.582 1.94 3.2 1.94v.517h-8.343v-.517c2.62 0 3.2-.55 3.2-1.94zm11.334 7.599v3.945c.873-3.136 2.911-4.688 5.5-4.688 3.525 0 5.174 2.069 5.174 5.594v8.925c0 1.035.388 1.391 2.328 1.391v.388h-6.338v-.388c1.941 0 2.328-.356 2.328-1.1v-9.183c0-2.587-1.2-4.4-4.107-4.4a5.323 5.323 0 0 0-4.883 3.459v10.025c0 .84.388 1.2 2.328 1.2v.388h-6.338v-.388c1.94 0 2.328-.356 2.328-1.2V12.109c0-.97-.389-1.326-2.328-1.326v-.388zm21.309 13.775c0 1.035.389 1.391 2.328 1.391v.388h-6.338v-.388c1.94 0 2.328-.356 2.328-1.1v-9.183c0-2.587-1.2-4.4-4.107-4.4a5.322 5.322 0 0 0-4.882 3.459c.873-3.136 2.91-4.688 5.5-4.688 3.525 0 5.174 2.069 5.174 5.594zm6.757 8.764c0 .744.582 1.1 2.975 1.1v.389h-6.984v-.389c1.94 0 2.328-.355 2.328-1.1V11.98c0-.841-.388-1.2-2.328-1.2v-.388h4.009zm5.174-23.282c4.721 0 7.469 3.686 7.469 8.31 0 4.721-2.716 8.44-7.372 8.44a6.668 6.668 0 0 1-5.238-2.49 8.083 8.083 0 0 0 4.43 1.423c4.269 0 6.338-3.266 6.338-7.372 0-4.171-2.2-7.244-6.305-7.244a7.236 7.236 0 0 0-4.462 1.585 6.545 6.545 0 0 1 5.14-2.656zm19.085 6.24c.065-3.492-.84-5.465-3.654-5.465-1.843 0-3.589.841-3.234 2.943.129.808-.194 1.455-.873 1.455-.712 0-1-.485-1-1.229 0-2.166 2.554-3.88 5.206-3.88 3.816 0 5.239 1.876 5.174 5.821l-.162 8.084c-.032.97.323 1.552 1.261 1.552a2.023 2.023 0 0 0 1.746-1.132l.065.033a2.426 2.426 0 0 1-2.393 2.1c-1.52 0-2.328-.776-2.3-2.813l.1-5.336c-5.174.129-7.858 1.649-7.858 4.171a3.074 3.074 0 0 0 3.363 3.136 6.006 6.006 0 0 0 4.365-1.908 5.593 5.593 0 0 1-5.077 2.975c-2.877 0-4.527-1.779-4.527-3.913 0-3.4 3.912-4.85 9.765-4.915zm13.119 9.349a8.063 8.063 0 0 0 5.433-1.811l.065.065a7.026 7.026 0 0 1-5.95 2.91c-4.4 0-7.566-3.3-7.566-8.5 0-4.948 3.427-8.149 7.793-8.149 2.328 0 5.239 1.034 5.239 2.328a.865.865 0 0 1-.906.97c-1.617 0-.646-2.587-4.4-2.587-3.525 0-5.918 2.781-5.918 7.244.002 4.843 2.75 7.53 6.21 7.53zm6.501-14.846h2.62l1.422-4.915h.227v4.915h5.044v.647h-5.044v11.512c0 2 .776 2.813 2.457 2.813a5.364 5.364 0 0 0 2.975-.938l.064.1a4.894 4.894 0 0 1-3.75 1.876c-1.973 0-3.4-1.035-3.4-3.493V11.041h-2.62z"></path></svg>